<svg width="8" height="11" viewBox="0 0 8 11" fill="none" xmlns="http://www.w3.org/2000/svg">
<path d="M6.82882 8.796C6.15682 9.72 5.21415 10.182 4.00082 10.182C2.78749 10.182 1.84015 9.72 1.15882 8.796C0.48682 7.872 0.15082 6.64 0.15082 5.1C0.15082 3.56 0.48682 2.328 1.15882 1.404C1.84015 0.479999 2.78749 0.0179992 4.00082 0.0179992C5.21415 0.0179992 6.15682 0.479999 6.82882 1.404C7.51015 2.328 7.85082 3.56 7.85082 5.1C7.85082 6.64 7.51015 7.872 6.82882 8.796ZM4.00082 8.614C4.72882 8.614 5.28415 8.31067 5.66682 7.704C6.04949 7.09733 6.24082 6.22933 6.24082 5.1C6.24082 3.97067 6.04949 3.10267 5.66682 2.496C5.28415 1.88933 4.72882 1.586 4.00082 1.586C3.28215 1.586 2.72682 1.88933 2.33482 2.496C1.95215 3.10267 1.76082 3.97067 1.76082 5.1C1.76082 6.22933 1.95215 7.09733 2.33482 7.704C2.72682 8.31067 3.28215 8.614 4.00082 8.614Z" fill="#7D7883"/>
</svg>
