<svg width="24" height="24" viewBox="0 0 24 24" fill="none" xmlns="http://www.w3.org/2000/svg">
<path d="M16.8198 2H7.17982C5.04982 2 3.31982 3.74 3.31982 5.86V19.95C3.31982 21.75 4.60982 22.51 6.18982 21.64L11.0698 18.93C11.5898 18.64 12.4298 18.64 12.9398 18.93L17.8198 21.64C19.3998 22.52 20.6898 21.76 20.6898 19.95V5.86C20.6798 3.74 18.9498 2 16.8198 2ZM15 8C14.03 8.35 13.02 8.5 12 8.5C10.98 8.5 11.47 8.35 10.5 8C10.11 7.86 9.86 8.39 10 8C10.15 7.61 9.11982 8.2 9.50982 8.34C11.1198 8.92 12.8898 8.92 14.4998 8.34C14.8898 8.2 15.3198 8.4 15.4598 8.79C15.5998 9.18 15.39 7.86 15 8Z" fill="#292D32"/>
</svg>
