<svg width="142" height="66" viewBox="0 0 142 66" fill="none" xmlns="http://www.w3.org/2000/svg">
<path d="M45.409 33.0003C45.409 26.1494 39.8508 20.5912 32.9999 20.5912C26.1491 20.5912 20.5908 26.1494 20.5908 33.0003C20.5908 39.8511 26.1491 45.4094 32.9999 45.4094C39.8508 45.4094 45.409 39.8511 45.409 33.0003Z" fill="black"/>
<path d="M37.7272 29.4546L31.1091 36.5455L28.2727 33.7091" stroke="white" stroke-width="1.5" stroke-linecap="round" stroke-linejoin="round"/>
<path d="M121.409 33.0003C121.409 26.1494 115.851 20.5912 109 20.5912C102.149 20.5912 96.5908 26.1494 96.5908 33.0003C96.5908 39.8511 102.149 45.4094 109 45.4094C115.851 45.4094 121.409 39.8511 121.409 33.0003Z" fill="white" stroke="#F1F1F1" stroke-miterlimit="10"/>
<path d="M111.829 36.796C111.157 37.72 110.214 38.182 109.001 38.182C107.787 38.182 106.84 37.72 106.159 36.796C105.487 35.872 105.151 34.64 105.151 33.1C105.151 31.56 105.487 30.328 106.159 29.404C106.84 28.48 107.787 28.018 109.001 28.018C110.214 28.018 111.157 28.48 111.829 29.404C112.51 30.328 112.851 31.56 112.851 33.1C112.851 34.64 112.51 35.872 111.829 36.796ZM109.001 36.614C109.729 36.614 110.284 36.3107 110.667 35.704C111.049 35.0973 111.241 34.2293 111.241 33.1C111.241 31.9707 111.049 31.1027 110.667 30.496C110.284 29.8893 109.729 29.586 109.001 29.586C108.282 29.586 107.727 29.8893 107.335 30.496C106.952 31.1027 106.761 31.9707 106.761 33.1C106.761 34.2293 106.952 35.0973 107.335 35.704C107.727 36.3107 108.282 36.614 109.001 36.614Z" fill="#7D7883"/>
<path d="M82.409 33.0003C82.409 26.1494 76.8508 20.5912 69.9999 20.5912C63.1491 20.5912 57.5908 26.1494 57.5908 33.0003C57.5908 39.8511 63.1491 45.4094 69.9999 45.4094C76.8508 45.4094 82.409 39.8511 82.409 33.0003Z" fill="white" stroke="black" stroke-miterlimit="10"/>
<path d="M72.8288 36.796C72.1568 37.72 71.2142 38.182 70.0008 38.182C68.7875 38.182 67.8402 37.72 67.1588 36.796C66.4868 35.872 66.1508 34.64 66.1508 33.1C66.1508 31.56 66.4868 30.328 67.1588 29.404C67.8402 28.48 68.7875 28.018 70.0008 28.018C71.2142 28.018 72.1568 28.48 72.8288 29.404C73.5102 30.328 73.8508 31.56 73.8508 33.1C73.8508 34.64 73.5102 35.872 72.8288 36.796ZM70.0008 36.614C70.7288 36.614 71.2842 36.3107 71.6668 35.704C72.0495 35.0973 72.2408 34.2293 72.2408 33.1C72.2408 31.9707 72.0495 31.1027 71.6668 30.496C71.2842 29.8893 70.7288 29.586 70.0008 29.586C69.2822 29.586 68.7268 29.8893 68.3348 30.496C67.9522 31.1027 67.7608 31.9707 67.7608 33.1C67.7608 34.2293 67.9522 35.0973 68.3348 35.704C68.7268 36.3107 69.2822 36.614 70.0008 36.614Z" fill="black"/>
<rect x="0.5" y="0.5" width="141" height="65" rx="4.5" stroke="#7B61FF" stroke-dasharray="10 5"/>
</svg>
