<svg width="24" height="24" viewBox="0 0 24 24" fill="none" xmlns="http://www.w3.org/2000/svg">
<path fill-rule="evenodd" clip-rule="evenodd" d="M12 21.9999C12.9399 22.0041 13.8712 21.8091 14.7399 21.4264C15.6087 21.0437 16.3978 20.4807 17.0614 19.7702C18.3856 18.3569 19.0548 16.5323 18.9965 14.4937C18.9435 12.6382 18.2713 10.6925 17.1035 9.01478L12.3524 2.18902C12.3116 2.13037 12.2584 2.08273 12.1973 2.04991C12.1361 2.01709 12.0686 2 12.0001 2C11.9316 2 11.8641 2.01709 11.803 2.04991C11.7418 2.08273 11.6886 2.13037 11.6478 2.18902L6.89662 9.01486C5.72865 10.6926 5.05666 12.6383 5.00349 14.4937C4.94532 16.5323 5.61453 18.357 6.93873 19.7703C7.60235 20.4808 8.39138 21.0437 9.26016 21.4264C10.1289 21.8091 11.0602 22.0041 12 21.9999ZM13.6252 19.182C13.5763 19.0692 13.5713 18.9403 13.6114 18.8236C13.6515 18.7068 13.7333 18.6119 13.839 18.5596C15.1232 17.9237 15.987 16.7003 16.1496 15.2874C16.1563 15.226 16.1743 15.1666 16.2025 15.1126C16.2308 15.0586 16.2688 15.0112 16.3143 14.9729C16.3598 14.9347 16.412 14.9065 16.4678 14.8898C16.5236 14.8732 16.5819 14.8686 16.6394 14.8761C16.6969 14.8836 16.7524 14.9033 16.8027 14.9338C16.8531 14.9644 16.8973 15.0053 16.9328 15.0541C16.9683 15.103 16.9944 15.1589 17.0095 15.2185C17.0247 15.2782 17.0287 15.3405 17.0212 15.4018C16.8216 17.1382 15.7701 18.6367 14.2085 19.4101C14.1562 19.4361 14.0996 19.4508 14.0419 19.4534C13.9843 19.456 13.9267 19.4464 13.8725 19.4252C13.8184 19.404 13.7686 19.3716 13.7262 19.3299C13.6838 19.2882 13.6495 19.2379 13.6252 19.182Z" fill="black"/>
</svg>
