<svg width="24" height="24" viewBox="0 0 24 24" fill="none" xmlns="http://www.w3.org/2000/svg">
<path d="M22.2026 4.13794H1.79742C0.804703 4.13794 0 4.94264 0 5.93536V18.0647C0 19.0574 0.804703 19.8621 1.79742 19.8621H22.2026C23.1952 19.8621 24 19.0574 24 18.0647V5.93536C24 4.94264 23.1953 4.13794 22.2026 4.13794Z" fill="#F5F5F5"/>
<path d="M0.0986328 5.3475H23.9009C23.6573 4.64358 22.989 4.13794 22.2023 4.13794H1.79719C1.01044 4.13794 0.342242 4.64358 0.0986328 5.3475Z" fill="#FF4B55"/>
<path d="M24 8.97607H0V10.1856H24V8.97607Z" fill="#FF4B55"/>
<path d="M24 6.55688H0V7.7664H24V6.55688Z" fill="#FF4B55"/>
<path d="M0 12.191C0 12.4195 0.185297 12.6048 0.413813 12.6048H24V11.3953H0V12.191Z" fill="#FF4B55"/>
<path d="M24 16.2338H0V17.4433H24V16.2338Z" fill="#FF4B55"/>
<path d="M23.9009 18.6525H0.0986328C0.342242 19.3564 1.01049 19.862 1.79719 19.862H22.2023C22.9891 19.862 23.6573 19.3564 23.9009 18.6525Z" fill="#FF4B55"/>
<path d="M24 13.8146H0V15.0241H24V13.8146Z" fill="#FF4B55"/>
<path d="M0.413813 12.6048H10.7587C10.9872 12.6048 11.1725 12.4195 11.1725 12.191V4.55175C11.1725 4.32319 10.9872 4.13794 10.7587 4.13794H1.79742C0.804703 4.13799 0 4.94269 0 5.93541V12.191C0 12.4196 0.185297 12.6048 0.413813 12.6048Z" fill="#41479B"/>
<path d="M1.16186 5.08771L1.25345 5.3624L1.543 5.3646C1.5805 5.36493 1.59602 5.41274 1.56588 5.43501L1.33295 5.60699L1.42033 5.88304C1.43167 5.91876 1.39094 5.94838 1.36042 5.92654L1.12488 5.75821L0.889329 5.92659C0.858814 5.94843 0.818173 5.91881 0.829423 5.88309L0.916798 5.60704L0.683876 5.43506C0.653736 5.41274 0.669251 5.36493 0.706751 5.36465L0.996298 5.36245L1.08789 5.08776C1.0997 5.05213 1.14995 5.05213 1.16186 5.08771Z" fill="#F5F5F5"/>
<path d="M1.16186 6.52457L1.25345 6.79926L1.543 6.80146C1.5805 6.80179 1.59602 6.84955 1.56588 6.87187L1.33295 7.0439L1.42033 7.31995C1.43167 7.35567 1.39094 7.38529 1.36042 7.36345L1.12488 7.19512L0.889329 7.36349C0.858814 7.38529 0.818173 7.35571 0.829423 7.31999L0.916798 7.04395L0.683876 6.87191C0.653736 6.8496 0.669251 6.80183 0.706751 6.80151L0.996298 6.7993L1.08789 6.52461C1.0997 6.48904 1.14995 6.48904 1.16186 6.52457Z" fill="#F5F5F5"/>
<path d="M1.16186 7.96161L1.25345 8.2363L1.543 8.23851C1.5805 8.23883 1.59602 8.2866 1.56588 8.30891L1.33295 8.48094L1.42033 8.75699C1.43167 8.79271 1.39094 8.82233 1.36042 8.80049L1.12488 8.63216L0.889329 8.80054C0.858814 8.82233 0.818173 8.7928 0.829423 8.75704L0.916798 8.48099L0.683876 8.30896C0.653736 8.28665 0.669251 8.23888 0.706751 8.23855L0.996298 8.23635L1.08789 7.96166C1.0997 7.92604 1.14995 7.92604 1.16186 7.96161Z" fill="#F5F5F5"/>
<path d="M1.16186 9.3985L1.25345 9.67319L1.543 9.67539C1.5805 9.67572 1.59602 9.72353 1.56588 9.7458L1.33295 9.91783L1.42033 10.1939C1.43167 10.2296 1.39094 10.2592 1.36042 10.2374L1.12488 10.069L0.889329 10.2374C0.858814 10.2592 0.818173 10.2296 0.829423 10.1939L0.916798 9.91788L0.683876 9.74585C0.653736 9.72363 0.669251 9.67577 0.706751 9.67544L0.996298 9.67324L1.08789 9.39855C1.0997 9.36293 1.14995 9.36293 1.16186 9.3985Z" fill="#F5F5F5"/>
<path d="M1.16186 10.8354L1.25345 11.11L1.543 11.1122C1.5805 11.1126 1.59602 11.1603 1.56588 11.1827L1.33295 11.3547L1.42033 11.6307C1.43167 11.6665 1.39094 11.6961 1.36042 11.6742L1.12488 11.5059L0.889329 11.6743C0.858814 11.6961 0.818173 11.6665 0.829423 11.6308L0.916798 11.3547L0.683876 11.1827C0.653736 11.1604 0.669251 11.1126 0.706751 11.1123L0.996298 11.1101L1.08789 10.8354C1.0997 10.7998 1.14995 10.7998 1.16186 10.8354Z" fill="#F5F5F5"/>
<path d="M2.27709 5.79215L2.36869 6.06684L2.65823 6.06904C2.69573 6.06937 2.71125 6.11718 2.68111 6.13945L2.44819 6.31148L2.53556 6.58752C2.54691 6.62324 2.50617 6.65287 2.47566 6.63102L2.24011 6.46265L2.00456 6.63102C1.97405 6.65282 1.93341 6.62324 1.94466 6.58752L2.03203 6.31148L1.79911 6.13945C1.76897 6.11714 1.78449 6.06937 1.82199 6.06904L2.11153 6.06684L2.20313 5.79215C2.21494 5.75662 2.26523 5.75662 2.27709 5.79215Z" fill="#F5F5F5"/>
<path d="M2.27709 7.2292L2.36869 7.50389L2.65823 7.50609C2.69573 7.50642 2.71125 7.55423 2.68111 7.5765L2.44819 7.74853L2.53556 8.02457C2.54691 8.06029 2.50617 8.08992 2.47566 8.06807L2.24011 7.8997L2.00456 8.06807C1.97405 8.08987 1.93341 8.06034 1.94466 8.02457L2.03203 7.74853L1.79911 7.5765C1.76897 7.55428 1.78449 7.50642 1.82199 7.50609L2.11153 7.50389L2.20313 7.2292C2.21494 7.19362 2.26523 7.19362 2.27709 7.2292Z" fill="#F5F5F5"/>
<path d="M2.27709 8.66609L2.36869 8.94078L2.65823 8.94298C2.69573 8.94331 2.71125 8.99107 2.68111 9.01339L2.44819 9.18542L2.53556 9.46147C2.54691 9.49719 2.50617 9.52681 2.47566 9.50497L2.24011 9.33659L2.00456 9.50497C1.97405 9.52676 1.93341 9.49719 1.94466 9.46147L2.03203 9.18542L1.79911 9.01339C1.76897 8.99107 1.78449 8.94331 1.82199 8.94298L2.11153 8.94078L2.20313 8.66609C2.21494 8.63051 2.26523 8.63051 2.27709 8.66609Z" fill="#F5F5F5"/>
<path d="M2.27709 10.1029L2.36869 10.3776L2.65823 10.3798C2.69573 10.3802 2.71125 10.4279 2.68111 10.4502L2.44819 10.6223L2.53556 10.8983C2.54691 10.934 2.50617 10.9637 2.47566 10.9418L2.24011 10.7734L2.00456 10.9418C1.97405 10.9637 1.93341 10.934 1.94466 10.8983L2.03203 10.6223L1.79911 10.4502C1.76897 10.4279 1.78449 10.3802 1.82199 10.3798L2.11153 10.3776L2.20313 10.1029C2.21494 10.0674 2.26523 10.0674 2.27709 10.1029Z" fill="#F5F5F5"/>
<path d="M3.39233 5.08772L3.48392 5.36241L3.77347 5.36461C3.81097 5.36494 3.82648 5.41275 3.79634 5.43502L3.56342 5.607L3.6508 5.88305C3.66214 5.91877 3.62141 5.94839 3.59089 5.92655L3.35534 5.75817L3.1198 5.92655C3.08928 5.94839 3.04864 5.91877 3.05989 5.88305L3.14727 5.607L2.91434 5.43502C2.8842 5.4127 2.89972 5.36489 2.93722 5.36461L3.22677 5.36241L3.31836 5.08772C3.33017 5.05214 3.38047 5.05214 3.39233 5.08772Z" fill="#F5F5F5"/>
<path d="M3.39233 6.52457L3.48392 6.79926L3.77347 6.80146C3.81097 6.80179 3.82648 6.84956 3.79634 6.87187L3.56342 7.0439L3.6508 7.31995C3.66214 7.35567 3.62141 7.38529 3.59089 7.36345L3.35534 7.19507L3.1198 7.36345C3.08928 7.38524 3.04864 7.35567 3.05989 7.31995L3.14727 7.0439L2.91434 6.87187C2.8842 6.84956 2.89972 6.80179 2.93722 6.80146L3.22677 6.79926L3.31836 6.52457C3.33017 6.48904 3.38047 6.48904 3.39233 6.52457Z" fill="#F5F5F5"/>
<path d="M3.39233 7.96162L3.48392 8.23631L3.77347 8.23851C3.81097 8.23884 3.82648 8.2866 3.79634 8.30892L3.56342 8.48095L3.6508 8.75699C3.66214 8.79271 3.62141 8.82234 3.59089 8.80049L3.35534 8.63212L3.1198 8.80049C3.08928 8.82229 3.04864 8.79276 3.05989 8.75699L3.14727 8.48095L2.91434 8.30892C2.8842 8.2866 2.89972 8.23884 2.93722 8.23851L3.22677 8.23631L3.31836 7.96162C3.33017 7.92604 3.38047 7.92604 3.39233 7.96162Z" fill="#F5F5F5"/>
<path d="M3.39233 9.39851L3.48392 9.6732L3.77347 9.6754C3.81097 9.67573 3.82648 9.72354 3.79634 9.74581L3.56342 9.91784L3.6508 10.1939C3.66214 10.2296 3.62141 10.2592 3.59089 10.2374L3.35534 10.069L3.1198 10.2374C3.08928 10.2592 3.04864 10.2296 3.05989 10.1939L3.14727 9.91784L2.91434 9.74581C2.8842 9.72359 2.89972 9.67573 2.93722 9.6754L3.22677 9.6732L3.31836 9.39851C3.33017 9.36293 3.38047 9.36293 3.39233 9.39851Z" fill="#F5F5F5"/>
<path d="M3.39233 10.8354L3.48392 11.1101L3.77347 11.1123C3.81097 11.1126 3.82648 11.1603 3.79634 11.1827L3.56342 11.3547L3.6508 11.6307C3.66214 11.6665 3.62141 11.6961 3.59089 11.6742L3.35534 11.5059L3.1198 11.6742C3.08928 11.696 3.04864 11.6665 3.05989 11.6307L3.14727 11.3547L2.91434 11.1827C2.8842 11.1603 2.89972 11.1126 2.93722 11.1123L3.22677 11.1101L3.31836 10.8354C3.33017 10.7998 3.38047 10.7998 3.39233 10.8354Z" fill="#F5F5F5"/>
<path d="M4.50756 5.79215L4.59916 6.06684L4.8887 6.06904C4.9262 6.06937 4.94172 6.11718 4.91158 6.13945L4.67866 6.31148L4.76603 6.58752C4.77738 6.62324 4.73664 6.65287 4.70613 6.63102L4.47058 6.46265L4.23503 6.63102C4.20452 6.65282 4.16388 6.62324 4.17513 6.58752L4.2625 6.31148L4.02958 6.13945C3.99944 6.11714 4.01495 6.06937 4.05245 6.06904L4.342 6.06684L4.4336 5.79215C4.44536 5.75662 4.4957 5.75662 4.50756 5.79215Z" fill="#F5F5F5"/>
<path d="M4.50756 7.2292L4.59916 7.50389L4.8887 7.50609C4.9262 7.50642 4.94172 7.55423 4.91158 7.5765L4.67866 7.74853L4.76603 8.02457C4.77738 8.06029 4.73664 8.08992 4.70613 8.06807L4.47058 7.8997L4.23503 8.06807C4.20452 8.08987 4.16388 8.06034 4.17513 8.02457L4.2625 7.74853L4.02958 7.5765C3.99944 7.55428 4.01495 7.50642 4.05245 7.50609L4.342 7.50389L4.4336 7.2292C4.44536 7.19362 4.4957 7.19362 4.50756 7.2292Z" fill="#F5F5F5"/>
<path d="M4.50756 8.66609L4.59916 8.94078L4.8887 8.94298C4.9262 8.94331 4.94172 8.99107 4.91158 9.01339L4.67866 9.18542L4.76603 9.46147C4.77738 9.49719 4.73664 9.52681 4.70613 9.50497L4.47058 9.33659L4.23503 9.50497C4.20452 9.52676 4.16388 9.49719 4.17513 9.46147L4.2625 9.18542L4.02958 9.01339C3.99944 8.99107 4.01495 8.94331 4.05245 8.94298L4.342 8.94078L4.4336 8.66609C4.44536 8.63051 4.4957 8.63051 4.50756 8.66609Z" fill="#F5F5F5"/>
<path d="M4.50756 10.1029L4.59916 10.3776L4.8887 10.3798C4.9262 10.3802 4.94172 10.4279 4.91158 10.4502L4.67866 10.6223L4.76603 10.8983C4.77738 10.934 4.73664 10.9637 4.70613 10.9418L4.47058 10.7734L4.23503 10.9418C4.20452 10.9637 4.16388 10.934 4.17513 10.8983L4.2625 10.6223L4.02958 10.4502C3.99944 10.4279 4.01495 10.3802 4.05245 10.3798L4.342 10.3776L4.4336 10.1029C4.44536 10.0674 4.4957 10.0674 4.50756 10.1029Z" fill="#F5F5F5"/>
<path d="M5.62333 5.08771L5.71492 5.3624L6.00447 5.3646C6.04197 5.36493 6.05749 5.41274 6.02735 5.43501L5.79442 5.60699L5.8818 5.88304C5.89314 5.91876 5.85241 5.94838 5.82189 5.92654L5.5863 5.75821L5.35075 5.92659C5.32024 5.94843 5.2796 5.91881 5.29085 5.88309L5.37822 5.60704L5.1453 5.43506C5.11516 5.41274 5.13068 5.36493 5.16818 5.36465L5.45772 5.36245L5.54932 5.08776C5.56118 5.05213 5.61147 5.05213 5.62333 5.08771Z" fill="#F5F5F5"/>
<path d="M5.62333 6.52457L5.71492 6.79926L6.00447 6.80146C6.04197 6.80179 6.05749 6.84956 6.02735 6.87187L5.79442 7.0439L5.8818 7.31995C5.89314 7.35567 5.85241 7.38529 5.82189 7.36345L5.5863 7.19507L5.35075 7.36345C5.32024 7.38524 5.2796 7.35567 5.29085 7.31995L5.37822 7.0439L5.1453 6.87187C5.11516 6.84956 5.13068 6.80179 5.16818 6.80146L5.45772 6.79926L5.54932 6.52457C5.56118 6.48904 5.61147 6.48904 5.62333 6.52457Z" fill="#F5F5F5"/>
<path d="M5.62333 7.96163L5.71492 8.23631L6.00447 8.23852C6.04197 8.23884 6.05749 8.28661 6.02735 8.30892L5.79442 8.48095L5.8818 8.757C5.89314 8.79272 5.85241 8.82234 5.82189 8.8005L5.5863 8.63208L5.35075 8.80045C5.32024 8.82225 5.2796 8.79267 5.29085 8.75695L5.37822 8.48091L5.1453 8.30888C5.11516 8.28656 5.13068 8.2388 5.16818 8.23847L5.45772 8.23627L5.54932 7.96158C5.56118 7.92605 5.61147 7.92605 5.62333 7.96163Z" fill="#F5F5F5"/>
<path d="M5.62333 9.39851L5.71492 9.6732L6.00447 9.6754C6.04197 9.67573 6.05749 9.72354 6.02735 9.74581L5.79442 9.91784L5.8818 10.1939C5.89314 10.2296 5.85241 10.2592 5.82189 10.2374L5.5863 10.069L5.35075 10.2374C5.32024 10.2592 5.2796 10.2296 5.29085 10.1939L5.37822 9.91784L5.1453 9.74581C5.11516 9.72359 5.13068 9.67573 5.16818 9.6754L5.45772 9.6732L5.54932 9.39851C5.56118 9.36293 5.61147 9.36293 5.62333 9.39851Z" fill="#F5F5F5"/>
<path d="M5.62333 10.8354L5.71492 11.1101L6.00447 11.1123C6.04197 11.1126 6.05749 11.1603 6.02735 11.1827L5.79442 11.3547L5.8818 11.6307C5.89314 11.6665 5.85241 11.6961 5.82189 11.6742L5.5863 11.5059L5.35075 11.6742C5.32024 11.696 5.2796 11.6665 5.29085 11.6307L5.37822 11.3547L5.1453 11.1827C5.11516 11.1603 5.13068 11.1126 5.16818 11.1123L5.45772 11.1101L5.54932 10.8354C5.56118 10.7998 5.61147 10.7998 5.62333 10.8354Z" fill="#F5F5F5"/>
<path d="M6.73852 5.79215L6.83011 6.06684L7.11966 6.06904C7.15716 6.06937 7.17267 6.11718 7.14253 6.13945L6.90961 6.31148L6.99699 6.58752C7.00833 6.62324 6.96759 6.65287 6.93708 6.63102L6.70153 6.46265L6.46599 6.63102C6.43547 6.65282 6.39483 6.62324 6.40608 6.58752L6.49346 6.31148L6.26054 6.13945C6.2304 6.11714 6.24591 6.06937 6.28341 6.06904L6.57296 6.06684L6.66455 5.79215C6.67641 5.75662 6.72666 5.75662 6.73852 5.79215Z" fill="#F5F5F5"/>
<path d="M6.73852 7.2292L6.83011 7.50389L7.11966 7.50609C7.15716 7.50642 7.17267 7.55423 7.14253 7.5765L6.90961 7.74853L6.99699 8.02457C7.00833 8.06029 6.96759 8.08992 6.93708 8.06807L6.70153 7.8997L6.46599 8.06807C6.43547 8.08987 6.39483 8.06034 6.40608 8.02457L6.49346 7.74853L6.26054 7.5765C6.2304 7.55428 6.24591 7.50642 6.28341 7.50609L6.57296 7.50389L6.66455 7.2292C6.67641 7.19362 6.72666 7.19362 6.73852 7.2292Z" fill="#F5F5F5"/>
<path d="M6.73852 8.66609L6.83011 8.94078L7.11966 8.94298C7.15716 8.94331 7.17267 8.99107 7.14253 9.01339L6.90961 9.18542L6.99699 9.46147C7.00833 9.49719 6.96759 9.52681 6.93708 9.50497L6.70153 9.33659L6.46599 9.50497C6.43547 9.52676 6.39483 9.49719 6.40608 9.46147L6.49346 9.18542L6.26054 9.01339C6.2304 8.99107 6.24591 8.94331 6.28341 8.94298L6.57296 8.94078L6.66455 8.66609C6.67641 8.63051 6.72666 8.63051 6.73852 8.66609Z" fill="#F5F5F5"/>
<path d="M6.73852 10.1029L6.83011 10.3776L7.11966 10.3798C7.15716 10.3802 7.17267 10.4279 7.14253 10.4502L6.90961 10.6223L6.99699 10.8983C7.00833 10.934 6.96759 10.9637 6.93708 10.9418L6.70153 10.7734L6.46599 10.9418C6.43547 10.9637 6.39483 10.934 6.40608 10.8983L6.49346 10.6223L6.26054 10.4502C6.2304 10.4279 6.24591 10.3802 6.28341 10.3798L6.57296 10.3776L6.66455 10.1029C6.67641 10.0674 6.72666 10.0674 6.73852 10.1029Z" fill="#F5F5F5"/>
<path d="M7.85375 5.08772L7.94535 5.36241L8.23489 5.36461C8.27239 5.36494 8.28791 5.41275 8.25776 5.43502L8.02484 5.607L8.11222 5.88305C8.12356 5.91877 8.08283 5.94839 8.05231 5.92655L7.81677 5.75817L7.58122 5.92655C7.55071 5.94839 7.51007 5.91877 7.52132 5.88305L7.60869 5.607L7.37577 5.43502C7.34563 5.4127 7.36115 5.36489 7.39865 5.36461L7.68819 5.36241L7.77978 5.08772C7.79155 5.05214 7.84189 5.05214 7.85375 5.08772Z" fill="#F5F5F5"/>
<path d="M7.85375 6.52457L7.94535 6.79926L8.23489 6.80146C8.27239 6.80179 8.28791 6.84956 8.25776 6.87187L8.02484 7.0439L8.11222 7.31995C8.12356 7.35567 8.08283 7.38529 8.05231 7.36345L7.81677 7.19507L7.58122 7.36345C7.55071 7.38524 7.51007 7.35567 7.52132 7.31995L7.60869 7.0439L7.37577 6.87187C7.34563 6.84956 7.36115 6.80179 7.39865 6.80146L7.68819 6.79926L7.77978 6.52457C7.79155 6.48904 7.84189 6.48904 7.85375 6.52457Z" fill="#F5F5F5"/>
<path d="M7.85375 7.96162L7.94535 8.23631L8.23489 8.23851C8.27239 8.23884 8.28791 8.2866 8.25776 8.30892L8.02484 8.48095L8.11222 8.75699C8.12356 8.79271 8.08283 8.82234 8.05231 8.80049L7.81677 8.63212L7.58122 8.80049C7.55071 8.82229 7.51007 8.79276 7.52132 8.75699L7.60869 8.48095L7.37577 8.30892C7.34563 8.2866 7.36115 8.23884 7.39865 8.23851L7.68819 8.23631L7.77978 7.96162C7.79155 7.92604 7.84189 7.92604 7.85375 7.96162Z" fill="#F5F5F5"/>
<path d="M7.85375 9.39851L7.94535 9.6732L8.23489 9.6754C8.27239 9.67573 8.28791 9.72354 8.25776 9.74581L8.02484 9.91784L8.11222 10.1939C8.12356 10.2296 8.08283 10.2592 8.05231 10.2374L7.81677 10.069L7.58122 10.2374C7.55071 10.2592 7.51007 10.2296 7.52132 10.1939L7.60869 9.91784L7.37577 9.74581C7.34563 9.72359 7.36115 9.67573 7.39865 9.6754L7.68819 9.6732L7.77978 9.39851C7.79155 9.36293 7.84189 9.36293 7.85375 9.39851Z" fill="#F5F5F5"/>
<path d="M7.85375 10.8354L7.94535 11.1101L8.23489 11.1123C8.27239 11.1126 8.28791 11.1603 8.25776 11.1827L8.02484 11.3547L8.11222 11.6307C8.12356 11.6665 8.08283 11.6961 8.05231 11.6742L7.81677 11.5059L7.58122 11.6742C7.55071 11.696 7.51007 11.6665 7.52132 11.6307L7.60869 11.3547L7.37577 11.1827C7.34563 11.1603 7.36115 11.1126 7.39865 11.1123L7.68819 11.1101L7.77978 10.8354C7.79155 10.7998 7.84189 10.7998 7.85375 10.8354Z" fill="#F5F5F5"/>
<path d="M8.96899 5.79215L9.06058 6.06684L9.35013 6.06904C9.38763 6.06937 9.40314 6.11718 9.373 6.13945L9.14008 6.31148L9.22746 6.58752C9.2388 6.62324 9.19807 6.65287 9.16755 6.63102L8.932 6.46265L8.69646 6.63102C8.66594 6.65282 8.6253 6.62324 8.63655 6.58752L8.72393 6.31148L8.49101 6.13945C8.46086 6.11714 8.47638 6.06937 8.51388 6.06904L8.80343 6.06684L8.89502 5.79215C8.90683 5.75662 8.95713 5.75662 8.96899 5.79215Z" fill="#F5F5F5"/>
<path d="M8.96899 7.2292L9.06058 7.50389L9.35013 7.50609C9.38763 7.50642 9.40314 7.55423 9.373 7.5765L9.14008 7.74853L9.22746 8.02457C9.2388 8.06029 9.19807 8.08992 9.16755 8.06807L8.932 7.8997L8.69646 8.06807C8.66594 8.08987 8.6253 8.06034 8.63655 8.02457L8.72393 7.74853L8.49101 7.5765C8.46086 7.55428 8.47638 7.50642 8.51388 7.50609L8.80343 7.50389L8.89502 7.2292C8.90683 7.19362 8.95713 7.19362 8.96899 7.2292Z" fill="#F5F5F5"/>
<path d="M8.96899 8.66609L9.06058 8.94078L9.35013 8.94298C9.38763 8.94331 9.40314 8.99107 9.373 9.01339L9.14008 9.18542L9.22746 9.46147C9.2388 9.49719 9.19807 9.52681 9.16755 9.50497L8.932 9.33659L8.69646 9.50497C8.66594 9.52676 8.6253 9.49719 8.63655 9.46147L8.72393 9.18542L8.49101 9.01339C8.46086 8.99107 8.47638 8.94331 8.51388 8.94298L8.80343 8.94078L8.89502 8.66609C8.90683 8.63051 8.95713 8.63051 8.96899 8.66609Z" fill="#F5F5F5"/>
<path d="M8.96899 10.1029L9.06058 10.3776L9.35013 10.3798C9.38763 10.3802 9.40314 10.4279 9.373 10.4502L9.14008 10.6223L9.22746 10.8983C9.2388 10.934 9.19807 10.9637 9.16755 10.9418L8.932 10.7734L8.69646 10.9418C8.66594 10.9637 8.6253 10.934 8.63655 10.8983L8.72393 10.6223L8.49101 10.4502C8.46086 10.4279 8.47638 10.3802 8.51388 10.3798L8.80343 10.3776L8.89502 10.1029C8.90683 10.0674 8.95713 10.0674 8.96899 10.1029Z" fill="#F5F5F5"/>
<path d="M10.0842 5.08772L10.1758 5.36241L10.4654 5.36461C10.5029 5.36494 10.5184 5.41275 10.4882 5.43502L10.2553 5.607L10.3427 5.88305C10.354 5.91877 10.3133 5.94839 10.2828 5.92655L10.0472 5.75817L9.81169 5.92655C9.78118 5.94839 9.74054 5.91877 9.75179 5.88305L9.83916 5.607L9.60624 5.43502C9.5761 5.4127 9.59161 5.36489 9.62911 5.36461L9.91866 5.36241L10.0103 5.08772C10.0221 5.05214 10.0723 5.05214 10.0842 5.08772Z" fill="#F5F5F5"/>
<path d="M10.0842 6.52457L10.1758 6.79926L10.4654 6.80146C10.5029 6.80179 10.5184 6.84956 10.4882 6.87187L10.2553 7.0439L10.3427 7.31995C10.354 7.35567 10.3133 7.38529 10.2828 7.36345L10.0472 7.19507L9.81169 7.36345C9.78118 7.38524 9.74054 7.35567 9.75179 7.31995L9.83916 7.0439L9.60624 6.87187C9.5761 6.84956 9.59161 6.80179 9.62911 6.80146L9.91866 6.79926L10.0103 6.52457C10.0221 6.48904 10.0723 6.48904 10.0842 6.52457Z" fill="#F5F5F5"/>
<path d="M10.0842 7.96162L10.1758 8.23631L10.4654 8.23851C10.5029 8.23884 10.5184 8.2866 10.4882 8.30892L10.2553 8.48095L10.3427 8.75699C10.354 8.79271 10.3133 8.82234 10.2828 8.80049L10.0472 8.63212L9.81169 8.80049C9.78118 8.82229 9.74054 8.79276 9.75179 8.75699L9.83916 8.48095L9.60624 8.30892C9.5761 8.2866 9.59161 8.23884 9.62911 8.23851L9.91866 8.23631L10.0103 7.96162C10.0221 7.92604 10.0723 7.92604 10.0842 7.96162Z" fill="#F5F5F5"/>
<path d="M10.0842 9.39851L10.1758 9.6732L10.4654 9.6754C10.5029 9.67573 10.5184 9.72354 10.4882 9.74581L10.2553 9.91784L10.3427 10.1939C10.354 10.2296 10.3133 10.2592 10.2828 10.2374L10.0472 10.069L9.81169 10.2374C9.78118 10.2592 9.74054 10.2296 9.75179 10.1939L9.83916 9.91784L9.60624 9.74581C9.5761 9.72359 9.59161 9.67573 9.62911 9.6754L9.91866 9.6732L10.0103 9.39851C10.0221 9.36293 10.0723 9.36293 10.0842 9.39851Z" fill="#F5F5F5"/>
<path d="M10.0842 10.8354L10.1758 11.1101L10.4654 11.1123C10.5029 11.1126 10.5184 11.1603 10.4882 11.1827L10.2553 11.3547L10.3427 11.6307C10.354 11.6665 10.3133 11.6961 10.2828 11.6742L10.0472 11.5059L9.81169 11.6742C9.78118 11.696 9.74054 11.6665 9.75179 11.6307L9.83916 11.3547L9.60624 11.1827C9.5761 11.1603 9.59161 11.1126 9.62911 11.1123L9.91866 11.1101L10.0103 10.8354C10.0221 10.7998 10.0723 10.7998 10.0842 10.8354Z" fill="#F5F5F5"/>
</svg>
