<svg width="24" height="24" viewBox="0 0 24 24" fill="none" xmlns="http://www.w3.org/2000/svg">
<path d="M6.43242 14.0862L5.73625 16.6851L3.19176 16.7389C2.43133 15.3285 2 13.7148 2 11.9999C2 10.3417 2.40328 8.77792 3.11813 7.401H3.11867L5.38399 7.81631L6.37633 10.068C6.16863 10.6735 6.05543 11.3235 6.05543 11.9999C6.05551 12.734 6.18848 13.4373 6.43242 14.0862Z" fill="#FBBB00"/>
<path d="M21.8254 10.1318C21.9402 10.7368 22.0001 11.3615 22.0001 12C22.0001 12.7159 21.9249 13.4143 21.7815 14.0879C21.2947 16.3802 20.0227 18.3818 18.2606 19.7983L18.26 19.7978L15.4068 19.6522L15.0029 17.1313C16.1722 16.4456 17.0859 15.3725 17.5672 14.0879H12.22V10.1318H17.6452H21.8254Z" fill="#518EF8"/>
<path d="M18.2603 19.7978L18.2608 19.7984C16.5471 21.1758 14.3701 22 12.0004 22C8.19214 22 4.88116 19.8715 3.19214 16.739L6.4328 14.0863C7.2773 16.3401 9.45148 17.9445 12.0004 17.9445C13.096 17.9445 14.1224 17.6484 15.0031 17.1313L18.2603 19.7978Z" fill="#28B446"/>
<path d="M18.383 4.30219L15.1434 6.95438C14.2319 6.38461 13.1544 6.05547 12 6.05547C9.39344 6.05547 7.1786 7.73348 6.37641 10.0681L3.11871 7.4011H3.11816C4.78246 4.19231 8.1352 2 12 2C14.4264 2 16.6511 2.8643 18.383 4.30219Z" fill="#F14336"/>
</svg>
