<svg width="24" height="24" viewBox="0 0 24 24" fill="none" xmlns="http://www.w3.org/2000/svg">
<circle cx="12" cy="12" r="10" fill="black"/>
<path fill-rule="evenodd" clip-rule="evenodd" d="M11.2501 6.99859V17.002L10.2825 16.2433C9.99149 16.0149 9.51595 16.0132 9.22193 16.2399C8.92791 16.4659 8.92566 16.8353 9.21743 17.0638L11.4676 18.8275C11.6079 18.9376 11.7991 19 11.9986 19C12.1982 19.0006 12.3894 18.9394 12.5304 18.8293L14.7806 17.0812C15.0731 16.854 15.0731 16.4846 14.7806 16.2573C14.4881 16.0301 14.0125 16.0301 13.72 16.2573L12.7502 17.0107V6.98926L13.72 7.74267C14.0125 7.96991 14.4881 7.96991 14.7806 7.74267C15.0731 7.51542 15.0731 7.14601 14.7806 6.91876L12.5304 5.17073C12.3894 5.06119 12.1982 4.99942 11.9986 5C11.7991 5.00059 11.6079 5.06235 11.4676 5.17248L9.21743 6.93624C8.92566 7.16465 8.92791 7.53407 9.22193 7.76073C9.51595 7.98681 9.99149 7.98506 10.2825 7.75665L11.2501 6.99859Z" fill="white"/>
</svg>
