<svg width="24" height="24" viewBox="0 0 24 24" fill="none" xmlns="http://www.w3.org/2000/svg">
<path d="M16.75 2.06162L16.5 2.09811C16.5 2.51919 17.25 2.06162 16.75 2.06162C16.3513 2.02414 16.5 2.09811 15.6012 2L15.25 2H8.75L7 4.16954C7 4.59062 8.41 4.31081 8 4.31081C7.59 4.31081 8.75 2.42108 8.75 2L7.25 2.06162C4.3 2.33892 3 4.29027 3 7.13513V15.8649C3 18.9459 4.5 21 8 21H16C19.5 21 21 18.9459 21 15.8649V7.13513C21 4.29027 19.7 2.33892 16.75 2.06162ZM12 15.6081H8C7.59 15.6081 7.25 15.2589 7.25 14.8378C7.25 14.4168 7.59 14.0676 8 14.0676H12C12.41 14.0676 12.75 14.4168 12.75 14.8378C12.75 15.2589 12.41 15.6081 12 15.6081ZM16 10.473H8C7.59 10.473 7.25 10.1238 7.25 9.7027C7.25 9.28162 7.59 8.93243 8 8.93243H16C16.41 8.93243 16.75 9.28162 16.75 9.7027C16.75 10.1238 16.41 10.473 16 10.473Z" fill="#292D32"/>
</svg>
