<svg width="24" height="24" viewBox="0 0 24 24" fill="none" xmlns="http://www.w3.org/2000/svg">
<g clip-path="url(#clip0_3384_4278)">
<path fill-rule="evenodd" clip-rule="evenodd" d="M0 0H24V24H0V0Z" fill="white"/>
<path fill-rule="evenodd" clip-rule="evenodd" d="M11.9753 17.3681C13.2438 18.5084 14.9472 19.2 16.8001 19.2C20.7794 19.2 24.0001 16.0337 24.0001 12.1393C24.0001 8.23311 20.7794 5.06665 16.8001 5.06665C14.9472 5.06665 13.2438 5.75814 11.9753 6.89853C10.5204 8.19656 9.6001 10.0648 9.6001 12.1393C9.60024 14.2138 10.5204 16.0822 11.9753 17.3681Z" fill="#E9B040"/>
<path fill-rule="evenodd" clip-rule="evenodd" d="M22.9331 16.2594C22.9331 16.1152 23.0485 16 23.1926 16C23.3512 16 23.4664 16.1154 23.4664 16.2594C23.4664 16.4181 23.351 16.5333 23.1926 16.5333C23.0485 16.5333 22.9331 16.4181 22.9331 16.2594ZM23.1926 16.4758C23.3081 16.4758 23.4087 16.3747 23.4087 16.2595C23.4087 16.1444 23.3079 16.0578 23.1926 16.0578C23.0915 16.0578 22.9908 16.1444 22.9908 16.2595C22.9908 16.3747 23.0916 16.4758 23.1926 16.4758ZM23.1638 16.3893H23.1061V16.1442H23.2069C23.2215 16.1442 23.2504 16.1442 23.2646 16.1588C23.2935 16.173 23.2935 16.1876 23.2935 16.2165C23.2935 16.2453 23.2792 16.2741 23.2504 16.2741L23.3081 16.3895H23.2358L23.2069 16.2884H23.1638V16.3893V16.2451H23.2215C23.2358 16.2451 23.2358 16.2305 23.2358 16.2163C23.2358 16.2017 23.2358 16.2017 23.2215 16.1874H23.1638V16.3893Z" fill="#E9B040"/>
<path fill-rule="evenodd" clip-rule="evenodd" d="M14.3627 11.3873C14.3378 11.1326 14.288 10.89 14.2383 10.6351H9.83616C9.88593 10.3804 9.96057 10.1378 10.0351 9.89508H14.0269C13.9403 9.63969 13.8407 9.38866 13.7285 9.14291H10.3461C10.4705 8.88594 10.6074 8.63493 10.7565 8.39074H13.3058C13.1418 8.13164 12.959 7.88434 12.7588 7.6507H11.3037C11.5288 7.38255 11.774 7.13113 12.0374 6.89853C10.7566 5.77028 9.06531 5.06665 7.2 5.06665C3.23316 5.06665 0 8.23311 0 12.1393C0 16.0337 3.23316 19.2 7.2 19.2C9.06531 19.2 10.7565 18.5084 12.0374 17.3681C12.2967 17.1396 12.5379 16.8921 12.7588 16.6279H11.3037C11.1046 16.3853 10.9306 16.1428 10.7565 15.8758H13.3058C13.4661 15.6359 13.6075 15.3844 13.7287 15.1236H10.3461C10.2341 14.881 10.1223 14.6384 10.0351 14.3834H14.0269C14.1139 14.1408 14.1762 13.8862 14.2381 13.6312C14.2879 13.3886 14.3376 13.1341 14.3625 12.8791C14.3877 12.6331 14.4002 12.3861 14.4 12.1389C14.4 11.8846 14.3876 11.6299 14.3627 11.3873Z" fill="#CC2131"/>
<path fill-rule="evenodd" clip-rule="evenodd" d="M22.9331 13.8665C22.9331 13.7122 23.0485 13.6 23.1926 13.6C23.3512 13.6 23.4664 13.7123 23.4664 13.8665C23.4664 14.0069 23.351 14.1333 23.1926 14.1333C23.0485 14.1333 22.9331 14.0067 22.9331 13.8665ZM23.1926 14.0629C23.3081 14.0629 23.4087 13.9787 23.4087 13.8665C23.4087 13.7543 23.3079 13.67 23.1926 13.67C23.0915 13.67 22.9908 13.7543 22.9908 13.8665C22.9908 13.9787 23.0916 14.0629 23.1926 14.0629ZM23.1638 13.9787H23.1061V13.7541H23.2646C23.2935 13.7683 23.2935 13.7964 23.2935 13.8245C23.2935 13.8384 23.2792 13.8665 23.2504 13.8807L23.3081 13.9788H23.2358L23.2069 13.8946H23.1638V13.9787V13.8524H23.1926C23.2069 13.8524 23.2215 13.8524 23.2215 13.8382C23.2358 13.8382 23.2358 13.8243 23.2358 13.8101C23.2358 13.8101 23.2358 13.7963 23.2215 13.7963C23.2215 13.782 23.2069 13.7963 23.1926 13.7963H23.1638V13.9787Z" fill="white"/>
<path fill-rule="evenodd" clip-rule="evenodd" d="M9.54229 14.2958C9.30914 14.3608 9.13723 14.4 8.96547 14.4C8.59725 14.4 8.37623 14.1524 8.37623 13.7094C8.37623 13.6183 8.38851 13.5271 8.40079 13.4228L8.4499 13.1233L8.48674 12.8757L8.81812 10.7391H9.55457L9.46862 11.2081H9.93507L9.82456 11.9898H9.35811L9.16179 13.2665C9.14951 13.3319 9.14951 13.3708 9.14951 13.3969C9.14951 13.5663 9.22318 13.6313 9.40722 13.6313C9.49317 13.6313 9.5667 13.6185 9.64038 13.6053L9.54229 14.2958ZM11.9235 14.2697C11.6535 14.3479 11.4081 14.3868 11.138 14.3868C10.3033 14.3868 9.82456 13.9178 9.82456 12.993C9.82456 11.9115 10.3892 11.1298 11.1747 11.1298C11.8006 11.1298 12.2057 11.5728 12.2057 12.2631C12.2057 12.4979 12.1811 12.7193 12.1198 13.0319H10.5856C10.5733 13.0841 10.5733 13.1101 10.5733 13.1362C10.5733 13.501 10.8064 13.6833 11.2483 13.6833C11.5306 13.6833 11.776 13.6183 12.0462 13.4881L11.9235 14.2697ZM11.4694 12.4066V12.2502C11.4694 11.9897 11.3343 11.8463 11.1011 11.8463C10.8556 11.8463 10.6838 12.0417 10.6101 12.4065H11.4694V12.4066ZM3.65074 14.3347H2.88974L3.33163 11.3774L2.33748 14.3347H1.80977L1.74838 11.3904L1.28193 14.3347H0.533203L1.13458 10.4914H2.25152L2.27608 12.8628L3.0248 10.4914H4.25226L3.65074 14.3347ZM5.50427 12.9408C5.4306 12.9277 5.40604 12.9277 5.35693 12.9277C4.91503 12.9277 4.69415 13.11 4.69415 13.3967C4.69415 13.5922 4.80466 13.7226 4.97642 13.7226C5.34465 13.7226 5.49185 13.3967 5.50427 12.9408ZM6.11793 14.3347H5.45516L5.46743 14.0092C5.29553 14.2565 5.06238 14.3868 4.65732 14.3868C4.2891 14.3868 3.96999 14.0352 3.96999 13.5271C3.96999 13.3838 3.99455 13.2537 4.03138 13.1233C4.15403 12.6411 4.6082 12.3416 5.30781 12.3284C5.39376 12.3284 5.52869 12.3284 5.65147 12.3416C5.67589 12.2373 5.67589 12.1981 5.67589 12.1331C5.67589 11.9245 5.51641 11.8593 5.16046 11.8593C4.93959 11.8593 4.69401 11.8985 4.52225 11.9636L4.41174 11.9897L4.36262 12.0026L4.47313 11.299C4.82908 11.1817 5.08679 11.1298 5.3692 11.1298C6.03197 11.1298 6.38792 11.4555 6.38792 12.0547C6.38792 12.2111 6.4002 12.3284 6.35108 12.6671L6.17932 13.7876L6.15476 13.9831L6.14248 14.1395L6.13021 14.2438L6.11793 14.3347ZM15.6303 11.234C15.8512 11.234 16.0476 11.2992 16.3176 11.4424L16.4526 10.6086C16.3789 10.5695 16.3543 10.5695 16.2562 10.5304L15.9496 10.4391C15.8513 10.4131 15.7287 10.4 15.5935 10.4C15.2128 10.4 14.9919 10.4131 14.7589 10.5564C14.6361 10.6477 14.4765 10.765 14.3046 10.9734L14.2064 10.9473L13.4208 11.5335L13.4578 11.2078H12.6475L12.1691 14.3345H12.9425L13.2247 12.6541C13.2247 12.6541 13.3353 12.4193 13.3843 12.3414C13.5316 12.1459 13.6543 12.1459 13.8138 12.1459H13.8753C13.8495 12.3445 13.8372 12.5448 13.8383 12.7452C13.8383 13.7614 14.3783 14.3999 15.213 14.3999C15.4217 14.3999 15.606 14.3738 15.8882 14.2956L16.0234 13.4098C15.7779 13.553 15.5569 13.6181 15.3727 13.6181C14.9187 13.6181 14.6484 13.2534 14.6484 12.6802C14.6481 11.8333 15.0533 11.234 15.6303 11.234ZM22.1475 10.4914L21.9759 11.5858C21.7917 11.2862 21.5707 11.1428 21.2761 11.1428C20.8709 11.1428 20.4906 11.3903 20.2573 11.8593V11.8465L19.7664 11.5337L19.8155 11.208H18.9931L18.5267 14.3347H19.2877L19.5455 12.6543C19.5455 12.6543 19.7418 12.4195 19.791 12.3416C19.9138 12.1852 20.0364 12.159 20.1346 12.1461C20.0488 12.4066 19.9997 12.7193 19.9997 13.0712C19.9997 13.8529 20.3801 14.374 20.9446 14.374C21.227 14.374 21.4479 14.2697 21.6565 14.022L21.6198 14.3347H22.3441L22.9332 10.4914H22.1475ZM21.2026 13.5922C20.9447 13.5922 20.8098 13.3838 20.8098 12.9798C20.8098 12.3674 21.0553 11.9245 21.4111 11.9245C21.681 11.9245 21.8163 12.1461 21.8163 12.537C21.8163 13.1623 21.5708 13.5922 21.2026 13.5922ZM17.6556 12.9408C17.5819 12.9277 17.5574 12.9277 17.5082 12.9277C17.0661 12.9277 16.8452 13.11 16.8452 13.3967C16.8452 13.5922 16.9558 13.7226 17.1276 13.7226C17.4958 13.7226 17.6432 13.3967 17.6556 12.9408ZM18.2693 14.3347H17.5941L17.6186 14.0092C17.4469 14.2565 17.2134 14.3868 16.8086 14.3868C16.428 14.3868 16.0968 14.0481 16.0968 13.5271C16.0968 12.7846 16.6243 12.3286 17.459 12.3286C17.5451 12.3286 17.6799 12.3286 17.7905 12.3418C17.8151 12.2375 17.8275 12.1982 17.8275 12.1332C17.8275 11.9247 17.6679 11.8595 17.2997 11.8595C17.0909 11.8595 16.8332 11.8986 16.6614 11.9638L16.5632 11.9898L16.5141 12.0027L16.6245 11.2992C16.9805 11.1819 17.2384 11.1299 17.5205 11.1299C18.1833 11.1299 18.527 11.4556 18.527 12.0549C18.527 12.2113 18.5515 12.3286 18.4903 12.6673L18.3306 13.7877L18.3061 13.9832L18.2815 14.1397L18.2694 14.2439V14.3347H18.2693ZM7.72574 11.8724C7.87308 11.8724 8.08168 11.8854 8.3027 11.9245L8.41321 11.1949C8.19219 11.1689 7.89764 11.1298 7.72574 11.1298C6.86665 11.1298 6.58438 11.6249 6.58438 12.1981C6.58438 12.5761 6.74386 12.8495 7.1612 13.0578C7.46803 13.2143 7.51714 13.2402 7.51714 13.3837C7.51714 13.5789 7.35766 13.6963 7.06297 13.6963C6.82981 13.6963 6.60879 13.6571 6.36336 13.566L6.27741 14.2824L6.28954 14.2956L6.43689 14.3217C6.486 14.3345 6.5474 14.3477 6.63335 14.3606C6.81739 14.3738 6.97702 14.3867 7.07525 14.3867C7.93448 14.3867 8.29042 14.0351 8.29042 13.3444C8.29042 12.9146 8.09396 12.6541 7.71346 12.4718C7.38207 12.3152 7.34524 12.2895 7.34524 12.1459C7.34524 12.0027 7.49258 11.8724 7.72574 11.8724Z" fill="#1B3771"/>
<path fill-rule="evenodd" clip-rule="evenodd" d="M16.7208 10.3287L16.5853 11.1626C16.3149 11.0192 16.1181 10.9542 15.8969 10.9542C15.319 10.9542 14.9134 11.5534 14.9134 12.4004C14.9134 12.9867 15.1838 13.3384 15.6389 13.3384C15.8231 13.3384 16.0445 13.2733 16.2903 13.1432L16.1552 14.0158C15.8723 14.094 15.6879 14.1333 15.4789 14.1333C14.643 14.1333 14.1265 13.4948 14.1265 12.4657C14.1265 11.0975 14.8396 10.1333 15.86 10.1333C15.9951 10.1333 16.118 10.1463 16.2164 10.1724L16.5238 10.2506C16.6224 10.2897 16.647 10.3027 16.7208 10.3287ZM14.2372 10.902H14.1634C13.9054 10.902 13.7579 11.0324 13.5242 11.41L13.598 10.9279H12.8971L12.4178 14.0549H13.1925C13.4751 12.1397 13.5489 11.814 13.9177 11.814H13.9669C14.0407 11.4361 14.139 11.1624 14.262 10.9149L14.2372 10.902ZM9.78683 14.0158C9.57789 14.094 9.40571 14.1201 9.23366 14.1201C8.84024 14.1201 8.61885 13.8856 8.61885 13.4298C8.61885 13.3515 8.63115 13.2474 8.64345 13.156L8.69265 12.8434L8.72954 12.596L9.06148 10.459H9.82373L9.73764 10.9281H10.1311L10.0327 11.6968H9.63925L9.4303 12.9998C9.418 13.0519 9.418 13.0912 9.418 13.1301C9.418 13.2865 9.4918 13.3517 9.67614 13.3517C9.76224 13.3517 9.83589 13.3517 9.88508 13.3256L9.78683 14.0158ZM6.82391 11.9182C6.82391 12.3093 6.99595 12.5827 7.40167 12.7912C7.72131 12.9476 7.7705 12.9996 7.7705 13.13C7.7705 13.3255 7.63521 13.4166 7.32788 13.4166C7.09434 13.4166 6.88526 13.3776 6.63942 13.2994L6.52873 14.0158L6.56563 14.029L6.70092 14.0551C6.74997 14.068 6.81161 14.0812 6.90986 14.0812C7.0819 14.1072 7.22949 14.1072 7.32788 14.1072C8.13919 14.1072 8.52046 13.7814 8.52046 13.0649C8.52046 12.6348 8.36072 12.3872 7.97959 12.192C7.64766 12.0355 7.61076 11.9966 7.61076 11.8532C7.61076 11.6839 7.74605 11.6057 7.99189 11.6057C8.13948 11.6057 8.34842 11.6188 8.5452 11.6448L8.65575 10.9282C8.45911 10.8891 8.15178 10.8631 7.97959 10.8631C7.11894 10.8629 6.81161 11.345 6.82391 11.9182ZM22.6097 14.0551H21.8842L21.9213 13.7553C21.7122 13.9898 21.4908 14.094 21.2079 14.094C20.6425 14.094 20.2736 13.5862 20.2736 12.8044C20.2736 11.762 20.8515 10.8759 21.5276 10.8759C21.835 10.8759 22.0563 11.0193 22.2655 11.3059L22.4375 10.2115H23.1998L22.6097 14.0551ZM21.4785 13.3255C21.8352 13.3255 22.081 12.8825 22.081 12.27C22.081 11.8661 21.9456 11.6575 21.6751 11.6575C21.3309 11.6575 21.0729 12.0875 21.0729 12.7C21.0729 13.1171 21.2081 13.3255 21.4785 13.3255ZM12.1472 13.9898C11.8767 14.0812 11.6308 14.1201 11.3481 14.1201C10.4874 14.1201 10.0448 13.6382 10.0448 12.713C10.0448 11.6447 10.6104 10.8499 11.385 10.8499C12.0243 10.8499 12.4298 11.2929 12.4298 11.9834C12.4298 12.218 12.4052 12.4396 12.3314 12.7652H10.8072C10.7949 12.8044 10.7949 12.8305 10.7949 12.8566C10.7949 13.2214 11.0286 13.4037 11.4711 13.4037C11.7538 13.4037 11.9997 13.3515 12.2702 13.2082L12.1472 13.9898ZM11.7169 12.1266V11.9704C11.7169 11.7098 11.5816 11.5665 11.3481 11.5665C11.1023 11.5665 10.9301 11.762 10.8563 12.1266H11.7169ZM3.88558 14.0551H3.12332L3.56595 11.0974L2.57015 14.0551H2.04144L1.97994 11.1234L1.51286 14.0551H0.799805L1.40217 10.2115H2.50866L2.54555 12.5959L3.28307 10.2115H4.48794L3.88558 14.0551ZM5.79122 12.6609C5.71742 12.6609 5.68052 12.648 5.61903 12.648C5.1887 12.648 4.96747 12.8173 4.96747 13.13C4.96747 13.3255 5.06586 13.4426 5.2379 13.4426C5.55753 13.4426 5.77892 13.13 5.79122 12.6609ZM6.35669 14.0551H5.71728L5.72958 13.7292C5.53279 13.9898 5.27465 14.1072 4.91812 14.1072C4.5001 14.1072 4.21736 13.7685 4.21736 13.2603C4.21736 12.4917 4.70904 12.0487 5.56969 12.0487C5.65578 12.0487 5.76647 12.0618 5.88932 12.0746C5.91392 11.9705 5.91392 11.9314 5.91392 11.8793C5.91392 11.6709 5.77863 11.5927 5.4221 11.5927C5.20086 11.5927 4.95488 11.6188 4.78283 11.6709L4.67214 11.71L4.59835 11.723L4.70904 11.0195C5.09017 10.9022 5.3483 10.8631 5.63118 10.8631C6.29504 10.8631 6.65157 11.1757 6.65157 11.775C6.65157 11.9314 6.63928 12.0487 6.59008 12.4005L6.41789 13.5081L6.39329 13.7033L6.38099 13.8597L6.36869 13.9772L6.35669 14.0551ZM17.9626 12.6609C17.8763 12.6609 17.8396 12.648 17.7905 12.648C17.3479 12.648 17.1264 12.8173 17.1264 13.13C17.1264 13.3255 17.2372 13.4426 17.4092 13.4426C17.7167 13.4426 17.9501 13.13 17.9626 12.6609ZM18.528 14.0551H17.8888L17.9009 13.7292C17.7043 13.9898 17.4461 14.1072 17.0896 14.1072C16.6716 14.1072 16.3887 13.7685 16.3887 13.2603C16.3887 12.4917 16.8804 12.0487 17.741 12.0487C17.8273 12.0487 17.938 12.0618 18.0485 12.0746C18.0731 11.9705 18.0855 11.9314 18.0855 11.8793C18.0855 11.6709 17.9501 11.5927 17.5939 11.5927C17.3723 11.5927 17.1144 11.6188 16.9422 11.6709L16.8438 11.71L16.77 11.723L16.8805 11.0195C17.2618 10.9022 17.5198 10.8631 17.8027 10.8631C18.4665 10.8631 18.8108 11.1757 18.8108 11.775C18.8108 11.9314 18.8108 12.0487 18.7494 12.4005L18.5895 13.5081L18.5649 13.7033L18.5403 13.8597L18.5282 13.9772V14.0551H18.528ZM20.5934 10.902H20.5196C20.2616 10.902 20.114 11.0324 19.8803 11.41L19.9541 10.9279H19.2532L18.786 14.0549H19.5483C19.8312 12.1397 19.9049 11.814 20.2738 11.814H20.323C20.3968 11.4361 20.495 11.1624 20.618 10.9149L20.5934 10.902Z" fill="white"/>
</g>
<defs>
<clipPath id="clip0_3384_4278">
<rect width="24" height="24" fill="white"/>
</clipPath>
</defs>
</svg>
