<svg width="24" height="24" viewBox="0 0 24 24" fill="none" xmlns="http://www.w3.org/2000/svg">
<path d="M8.57988 3.06372L21.8174 12.9075C21.0786 13.905 21.2849 15.315 22.2824 16.0575L18.7011 20.8687C17.7036 20.13 16.2936 20.3362 15.5549 21.3337L2.31363 11.4862C3.05613 10.4887 2.84613 9.07872 1.84863 8.33997L5.42988 3.52497C6.42738 4.26747 7.83363 4.05747 8.57988 3.06372Z" fill="#65BC6A"/>
<path d="M23.3251 14.025C23.4901 14.1487 23.5239 14.385 23.4001 14.55L22.2826 16.0575C21.2851 15.315 21.0789 13.905 21.8176 12.9075L23.3251 14.025ZM18.7014 20.8687L17.5839 22.3762C17.4601 22.5412 17.2239 22.575 17.0589 22.4512L15.5551 21.3337C16.2939 20.3362 17.7039 20.13 18.7014 20.8687ZM14.0814 9.4875C15.5739 10.6012 15.8851 12.7162 14.7751 14.2125C13.6614 15.7087 11.5464 16.0162 10.0539 14.9062C8.55764 13.7925 8.24639 11.6775 9.35639 10.185C10.4701 8.68875 12.5851 8.3775 14.0814 9.4875Z" fill="#398F3E"/>
<path d="M10.4999 14.3037C10.567 14.3535 10.6457 14.3779 10.7234 14.3779C10.8381 14.3779 10.951 14.3258 11.0245 14.2268L11.3429 13.7985C11.3684 13.8023 11.3924 13.8094 11.4182 13.8113C11.4456 13.8132 11.473 13.8143 11.5 13.8143C12.0839 13.8143 12.5785 13.3613 12.6216 12.7703C12.6359 12.573 12.598 12.3754 12.5117 12.198C12.4724 12.117 12.4232 12.0409 12.3655 11.9715C12.3441 11.9434 12.319 11.9179 12.2901 11.8965C12.2099 11.8365 12.1574 11.7492 12.1427 11.6502C12.1281 11.5512 12.1529 11.4522 12.2129 11.3719C12.2725 11.2917 12.3602 11.2392 12.4592 11.2245C12.559 11.2103 12.6572 11.235 12.7379 11.295C12.7915 11.3348 12.832 11.3862 12.8582 11.4465C12.8714 11.4769 12.8804 11.5092 12.8852 11.5414C12.9156 11.7465 13.1069 11.8872 13.3109 11.8579C13.5156 11.8275 13.6574 11.6374 13.6274 11.4323C13.6131 11.3352 13.5861 11.2403 13.5471 11.1499C13.5201 11.0873 13.4807 11.0318 13.4429 10.9755L13.7102 10.6159C13.834 10.4498 13.7995 10.215 13.633 10.0913C13.4672 9.9679 13.2321 10.002 13.1084 10.1685L12.844 10.524C12.6857 10.4749 12.5185 10.4577 12.3505 10.4828C12.0531 10.5267 11.7906 10.6834 11.6114 10.9245C11.2521 11.4079 11.3391 12.0874 11.8004 12.4654C11.8146 12.4845 11.827 12.5048 11.8375 12.5262C11.8664 12.5858 11.8787 12.6499 11.8739 12.7167C11.8589 12.9229 11.6736 13.0789 11.473 13.0635C11.3729 13.0564 11.2817 13.0107 11.2165 12.9349C11.1509 12.8592 11.1186 12.7624 11.1261 12.6627C11.1411 12.456 10.9855 12.2764 10.7792 12.2614C10.5647 12.2475 10.393 12.402 10.378 12.6083C10.3562 12.9079 10.4526 13.1982 10.6495 13.4254C10.6562 13.4333 10.6645 13.4385 10.6712 13.446L10.4237 13.779C10.2989 13.9455 10.3334 14.1803 10.4999 14.3037ZM2.31398 11.4863L12.7465 19.245H12.7427L2.54648 16.0013C2.92523 14.8163 2.26898 13.5525 1.08398 13.1738L1.50023 11.865L1.75148 11.07L2.31398 11.4863Z" fill="#65BC6A"/>
<path d="M12.7426 19.2449L9.07885 18.0787L1.56385 12.4912L1.3501 12.3337L1.5001 11.8649L1.75135 11.0699L2.31385 11.4862L12.7426 19.2449Z" fill="#398F3E"/>
<path d="M13.5938 19.875H3.75C3.75 18.6337 2.74125 17.625 1.5 17.625V15.6675L2.54625 16.0012L12.7425 19.245H12.7463L13.5938 19.875Z" fill="#65BC6A"/>
<path d="M13.5938 19.875H11.1862L2.54625 17.1262L1.5 16.7925V15.6675L2.54625 16.0012L12.7425 19.245H12.7463L13.5938 19.875Z" fill="#29752B"/>
<path d="M22.5002 17.625V19.5C22.5002 19.7062 22.3314 19.875 22.1252 19.875H20.9927L21.0977 19.5413L21.6564 17.79C21.9152 17.6812 22.2002 17.625 22.5002 17.625Z" fill="#236823"/>
<path d="M22.5 15.7612V17.625C22.2 17.625 21.915 17.6812 21.6562 17.79L22.1512 16.2337V16.23L22.2825 16.0575L22.5 15.7612Z" fill="#29752B"/>
<path d="M22.1513 16.2338L21.6563 17.79L21.0975 19.5413C20.8313 19.455 20.5575 19.425 20.2913 19.44C20.0813 19.4513 19.875 19.4925 19.6763 19.56L22.1513 16.2338Z" fill="#65BC6A"/>
<path d="M21.0975 19.5413L20.9925 19.875L20.5275 21.33C20.4675 21.525 20.2538 21.6337 20.0588 21.5737L18.54 21.09L18.7013 20.8688L19.6763 19.56C19.875 19.4925 20.0813 19.4513 20.2913 19.44C20.5575 19.425 20.8313 19.455 21.0975 19.5413ZM22.5 9.75V11.3325L21.7538 11.0925L20.7375 10.77H20.7338C20.43 10.3875 20.25 9.90375 20.25 9.375H22.125C22.3313 9.375 22.5 9.54375 22.5 9.75Z" fill="#398F3E"/>
<path d="M20.7336 10.77L17.6098 9.77625H17.6061L17.0698 9.375H20.2498C20.2498 9.90375 20.4298 10.3875 20.7336 10.77Z" fill="#65BC6A"/>
<path d="M4.00139 5.44497L3.20264 6.52122V6.51747L3.58514 5.31372L4.00139 5.44497Z" fill="#398F3E"/>
<path d="M3.74982 19.875H1.87482C1.66857 19.875 1.49982 19.7063 1.49982 19.5V17.625C2.74107 17.625 3.74982 18.6338 3.74982 19.875ZM1.08357 13.1738C2.26857 13.5525 2.92482 14.8163 2.54607 16.0013L1.49982 15.6675L0.757317 15.4313C0.562317 15.3713 0.453567 15.1575 0.513567 14.9625L1.08357 13.1738ZM8.57982 3.06001V3.06376C7.83357 4.05751 6.42732 4.26751 5.42982 3.52501L6.55107 2.02126C6.67107 1.85251 6.90732 1.81876 7.07232 1.94251L8.57982 3.06001ZM1.84857 8.34001C2.84607 9.07876 3.05607 10.4888 2.31357 11.4863L0.809817 10.3688C0.641067 10.245 0.607317 10.0088 0.731067 9.84376L1.84857 8.34001Z" fill="#398F3E"/>
<path d="M21.7424 11.1262C21.5811 11.565 21.5549 12.2662 21.6561 12.7837L17.6099 9.77625L20.7336 10.77H20.7374L21.7536 11.0925L21.7424 11.1262Z" fill="#65BC6A"/>
<path d="M21.6563 12.7838C21.555 12.2663 21.5813 11.565 21.7425 11.1263L21.7538 11.0925L22.5 11.3325L23.2425 11.5688C23.4375 11.6288 23.5463 11.8425 23.4863 12.0375L22.9425 13.74L21.8175 12.9075L21.6563 12.7838ZM22.1513 16.2338L21.6563 17.79L21.0975 19.5413C20.8313 19.455 20.5575 19.425 20.2913 19.44C20.0813 19.4513 19.875 19.4925 19.6763 19.56L22.1513 16.2338Z" fill="#398F3E"/>
<path d="M20.2913 19.44C20.0813 19.4512 19.875 19.4925 19.6763 19.56L19.0275 20.4337L18.7013 20.8687L18.54 21.09L19.7513 21.4762L20.0588 21.5737C20.2538 21.6337 20.4675 21.525 20.5275 21.33L20.9925 19.875L21.03 19.755L21.0975 19.5412C20.8313 19.455 20.5575 19.425 20.2913 19.44Z" fill="#29752B"/>
<path d="M21.1275 10.8937L20.7375 10.77H20.7338C20.6513 10.6687 20.58 10.56 20.52 10.4437L21.1275 10.8937Z" fill="#236823"/>
<path d="M20.7336 10.77L17.6098 9.77625H17.6061L17.0698 9.375H19.0836L20.5198 10.4438C20.5798 10.56 20.6511 10.6687 20.7336 10.77Z" fill="#29752B"/>
<path d="M21.6111 11.745C21.6299 11.5912 21.6524 11.4412 21.6861 11.31L21.1274 10.8937L20.7374 10.77H20.7336L17.6099 9.77625L21.3824 12.5812L21.6561 12.7837C21.5961 12.4725 21.5811 12.0937 21.6111 11.745Z" fill="#398F3E"/>
<path d="M22.9087 13.7138L22.9837 13.6125L22.9424 13.74L22.9087 13.7138Z" fill="#398F3E"/>
<path d="M23.3249 12.5251L21.8174 11.4076L21.6862 11.3101C21.6524 11.4413 21.6299 11.5913 21.6112 11.7451C21.5812 12.0938 21.5962 12.4726 21.6562 12.7838L21.8174 12.9076L22.9087 13.7138L22.9837 13.6126L23.3287 12.5288L23.3249 12.5251Z" fill="#29752B"/>
</svg>
