<svg width="24" height="24" viewBox="0 0 24 24" fill="none" xmlns="http://www.w3.org/2000/svg">
<path d="M14.9706 18.9093C15.0188 20.4286 13.8284 21.6969 12.3092 21.7451C10.7899 21.7933 9.52156 20.6029 9.47338 19.0837C9.4252 17.5644 10.6156 16.2961 12.1348 16.2479C13.6541 16.1997 14.9224 17.3901 14.9706 18.9093ZM10.9726 19.0361C10.9945 19.7258 11.572 20.2677 12.2616 20.2459C12.9513 20.224 13.4932 19.6465 13.4714 18.9569C13.4495 18.2672 12.872 17.7252 12.1824 17.7471C11.4927 17.769 10.9508 18.3465 10.9726 19.0361Z" fill="#292D32"/>
<path d="M14.5268 4.9164C14.5749 6.43564 13.3846 7.70401 11.8653 7.75219C10.3461 7.80037 9.07771 6.60997 9.02953 5.09074C8.98135 3.5715 10.1717 2.30313 11.691 2.25495C13.2102 2.20677 14.4786 3.39716 14.5268 4.9164ZM10.5288 5.04319C10.5506 5.73284 11.1281 6.27481 11.8178 6.25294C12.5074 6.23107 13.0494 5.6536 13.0275 4.96395C13.0056 4.27429 12.4282 3.73233 11.7385 3.7542C11.0489 3.77607 10.5069 4.35354 10.5288 5.04319Z" fill="#292D32"/>
<path d="M14.7484 11.9127C14.7966 13.432 13.6062 14.7003 12.087 14.7485C10.5678 14.7967 9.29939 13.6063 9.25121 12.0871C9.20303 10.5678 10.3934 9.29947 11.9127 9.25129C13.4319 9.20311 14.7003 10.3935 14.7484 11.9127ZM10.7505 12.0395C10.7723 12.7292 11.3498 13.2711 12.0395 13.2493C12.7291 13.2274 13.2711 12.6499 13.2492 11.9603C13.2273 11.2706 12.6499 10.7287 11.9602 10.7505C11.2706 10.7724 10.7286 11.3499 10.7505 12.0395Z" fill="#292D32"/>
</svg>
