<svg width="24" height="24" viewBox="0 0 24 24" fill="none" xmlns="http://www.w3.org/2000/svg">
<path d="M18.0015 7.25263C17.8913 7.18699 17.7556 7.18242 17.6413 7.24045C17.5272 7.29863 17.45 7.41138 17.4363 7.53988C17.4228 7.66484 17.4017 7.78977 17.3753 7.92084C16.6376 11.306 15.1561 12.9524 12.845 12.9524H9.45406C9.27526 12.9527 9.12132 13.08 9.08558 13.2571L7.95526 18.6141L7.75333 19.9779C7.63722 20.598 8.04032 21.196 8.65366 21.3134C8.7213 21.3263 8.78993 21.333 8.85877 21.3333H11.1269C11.6468 21.3349 12.1001 20.9761 12.2233 20.4655L13.1396 16.7619H15.1056C17.4258 16.7619 19.0293 14.8915 19.6208 11.4949C20.0113 9.87757 19.3653 8.18537 18.0015 7.25263Z" fill="#03A9F4"/>
<path d="M17.4358 4.29109C16.6811 3.4372 15.5981 2.94356 14.457 2.93338H8.1328C7.18635 2.92831 6.38057 3.61905 6.2432 4.55316L4.27949 17.6206C4.18543 18.2447 4.61639 18.8268 5.24212 18.9206C5.2989 18.9292 5.35629 18.9334 5.41372 18.9333H8.34668C8.52792 18.933 8.68395 18.8057 8.72018 18.6286L9.80096 13.6H12.9325C15.6501 13.6 17.4458 11.7052 18.2707 7.96194C18.3038 7.81273 18.3293 7.66194 18.347 7.51012C18.5385 6.3553 18.2045 5.17541 17.4358 4.29109Z" fill="#283593"/>
</svg>
