<svg width="24" height="24" viewBox="0 0 24 24" fill="none" xmlns="http://www.w3.org/2000/svg">
<path d="M13.5546 4.29978L15.1429 7.49402C15.3569 7.93578 15.9314 8.35488 16.4158 8.44549L19.2884 8.92123C21.1245 9.22707 21.5526 10.5637 20.2346 11.9003L17.9929 14.1543C17.6211 14.5281 17.4071 15.2644 17.531 15.7968L18.1731 18.5832C18.68 20.7807 17.5085 21.6415 15.5822 20.4862L12.8899 18.8777C12.4055 18.5832 11.5945 18.5832 11.1101 18.8777L8.41775 20.4862C6.49146 21.6302 5.31993 20.7807 5.82685 18.5832L6.46895 15.7968C6.59287 15.2757 6.37883 14.5395 6.00709 14.1543L3.7654 11.9003C2.44741 10.575 2.87547 9.23839 4.71164 8.92123L7.58416 8.44549C8.06855 8.3662 8.64306 7.93578 8.8571 7.49402L10.4454 4.29978C11.2903 2.56674 12.6872 2.56674 13.5546 4.29978Z" fill="#292D32"/>
</svg>
